<mxfile host="65bd71144e">
    <diagram id="Nh9DbsmlWs0bwRpxvXcd" name="User Information">
        <mxGraphModel dx="1028" dy="459" grid="1" gridSize="10" guides="0" tooltips="1" connect="1" arrows="1" fold="1" page="1" pageScale="1" pageWidth="1100" pageHeight="850" math="0" shadow="0">
            <root>
                <mxCell id="0"/>
                <mxCell id="1" parent="0"/>
                <mxCell id="62" style="edgeStyle=none;html=1;exitX=1;exitY=0.3333333333333333;exitDx=0;exitDy=0;exitPerimeter=0;" parent="1" source="7" edge="1">
                    <mxGeometry relative="1" as="geometry">
                        <mxPoint x="70.11111111111109" y="600.1111111111111" as="targetPoint"/>
                    </mxGeometry>
                </mxCell>
                <mxCell id="7" value="Student &amp;amp; &lt;br&gt;Lecturer" style="shape=umlActor;verticalLabelPosition=bottom;verticalAlign=top;html=1;outlineConnect=0;" parent="1" vertex="1">
                    <mxGeometry x="40" y="580" width="30" height="60" as="geometry"/>
                </mxCell>
                <mxCell id="10" value="SRC" style="shape=umlActor;verticalLabelPosition=bottom;verticalAlign=top;html=1;outlineConnect=0;" parent="1" vertex="1">
                    <mxGeometry x="970" y="993.75" width="30" height="60" as="geometry"/>
                </mxCell>
                <mxCell id="11" value="Admin" style="shape=umlActor;verticalLabelPosition=bottom;verticalAlign=top;html=1;outlineConnect=0;" parent="1" vertex="1">
                    <mxGeometry x="1030" y="720" width="30" height="60" as="geometry"/>
                </mxCell>
                <mxCell id="14" value="" style="rounded=0;whiteSpace=wrap;html=1;fillColor=#FFCCCC;" parent="1" vertex="1">
                    <mxGeometry x="220" y="50" width="340" height="192.5" as="geometry"/>
                </mxCell>
                <mxCell id="15" value="Registration and Authentication Module" style="rounded=0;whiteSpace=wrap;html=1;" parent="1" vertex="1">
                    <mxGeometry x="220" y="30" width="230" height="20" as="geometry"/>
                </mxCell>
                <mxCell id="16" value="UC001: Sign Up&lt;br&gt;(UTM Email)" style="ellipse;whiteSpace=wrap;html=1;" parent="1" vertex="1">
                    <mxGeometry x="235" y="60" width="110" height="60" as="geometry"/>
                </mxCell>
                <mxCell id="3bklzfCK_-_vBuCAfFPz-18" style="edgeStyle=none;html=1;entryX=1;entryY=0.5;entryDx=0;entryDy=0;" parent="1" target="16" edge="1">
                    <mxGeometry relative="1" as="geometry">
                        <Array as="points">
                            <mxPoint x="1040" y="90"/>
                            <mxPoint x="690" y="100"/>
                        </Array>
                        <mxPoint x="1045" y="710" as="sourcePoint"/>
                    </mxGeometry>
                </mxCell>
                <mxCell id="LPGJfSuWznseCfs-JJjP-116" style="edgeStyle=none;html=1;exitX=0;exitY=0.5;exitDx=0;exitDy=0;entryX=0.898;entryY=0.788;entryDx=0;entryDy=0;entryPerimeter=0;dashed=1;" parent="1" source="3bklzfCK_-_vBuCAfFPz-19" target="16" edge="1">
                    <mxGeometry relative="1" as="geometry"/>
                </mxCell>
                <mxCell id="3bklzfCK_-_vBuCAfFPz-19" value="UC002: Email verification" style="ellipse;whiteSpace=wrap;html=1;" parent="1" vertex="1">
                    <mxGeometry x="437.5" y="107.5" width="110" height="50" as="geometry"/>
                </mxCell>
                <mxCell id="LPGJfSuWznseCfs-JJjP-118" style="edgeStyle=none;html=1;exitX=1;exitY=0.5;exitDx=0;exitDy=0;entryX=0;entryY=0.5;entryDx=0;entryDy=0;dashed=1;" parent="1" source="3bklzfCK_-_vBuCAfFPz-20" target="tRfl53h29Oq87ieM9Fut-25" edge="1">
                    <mxGeometry relative="1" as="geometry"/>
                </mxCell>
                <mxCell id="3bklzfCK_-_vBuCAfFPz-20" value="UC003: Reset password" style="ellipse;whiteSpace=wrap;html=1;" parent="1" vertex="1">
                    <mxGeometry x="245" y="170" width="100" height="55" as="geometry"/>
                </mxCell>
                <mxCell id="tRfl53h29Oq87ieM9Fut-25" value="UC004: Login" style="ellipse;whiteSpace=wrap;html=1;" parent="1" vertex="1">
                    <mxGeometry x="447.5" y="185" width="90" height="40" as="geometry"/>
                </mxCell>
                <mxCell id="tRfl53h29Oq87ieM9Fut-37" value="" style="rounded=0;whiteSpace=wrap;html=1;fillColor=#FFCCCC;" parent="1" vertex="1">
                    <mxGeometry x="225" y="720" width="335" height="160" as="geometry"/>
                </mxCell>
                <mxCell id="17" value="Admin and Reporting Module" style="rounded=0;whiteSpace=wrap;html=1;" parent="1" vertex="1">
                    <mxGeometry x="225" y="700" width="170" height="20" as="geometry"/>
                </mxCell>
                <mxCell id="18" value="UC010: Generate Report" style="ellipse;whiteSpace=wrap;html=1;" parent="1" vertex="1">
                    <mxGeometry x="230" y="730" width="120" height="50" as="geometry"/>
                </mxCell>
                <mxCell id="LPGJfSuWznseCfs-JJjP-121" style="edgeStyle=none;html=1;exitX=0;exitY=0.5;exitDx=0;exitDy=0;dashed=1;startArrow=none;" parent="1" source="27" target="18" edge="1">
                    <mxGeometry relative="1" as="geometry"/>
                </mxCell>
                <mxCell id="19" value="UC011: View &lt;br&gt;Report" style="ellipse;whiteSpace=wrap;html=1;" parent="1" vertex="1">
                    <mxGeometry x="440" y="730" width="100" height="45" as="geometry"/>
                </mxCell>
                <mxCell id="kwJNHoxk6TTBNaTpvNkK-22" value="" style="rounded=0;whiteSpace=wrap;html=1;fillColor=#FFCCCC;" parent="1" vertex="1">
                    <mxGeometry x="225" y="1147.5" width="335" height="162.5" as="geometry"/>
                </mxCell>
                <mxCell id="kwJNHoxk6TTBNaTpvNkK-23" value="&lt;span style=&quot;color: rgb(0, 0, 0); font-family: Helvetica; font-size: 12px; font-style: normal; font-variant-ligatures: normal; font-variant-caps: normal; font-weight: 400; letter-spacing: normal; orphans: 2; text-align: center; text-indent: 0px; text-transform: none; widows: 2; word-spacing: 0px; -webkit-text-stroke-width: 0px; background-color: rgb(251, 251, 251); text-decoration-thickness: initial; text-decoration-style: initial; text-decoration-color: initial; float: none; display: inline !important;&quot;&gt;Feedback Module&lt;/span&gt;" style="rounded=0;whiteSpace=wrap;html=1;" parent="1" vertex="1">
                    <mxGeometry x="225" y="1130" width="110" height="17.5" as="geometry"/>
                </mxCell>
                <mxCell id="kwJNHoxk6TTBNaTpvNkK-27" value="&lt;span style=&quot;color: rgb(0, 0, 0); font-family: Helvetica; font-size: 12px; font-style: normal; font-variant-ligatures: normal; font-variant-caps: normal; font-weight: 400; letter-spacing: normal; orphans: 2; text-align: center; text-indent: 0px; text-transform: none; widows: 2; word-spacing: 0px; -webkit-text-stroke-width: 0px; background-color: rgb(251, 251, 251); text-decoration-thickness: initial; text-decoration-style: initial; text-decoration-color: initial; float: none; display: inline !important;&quot;&gt;UC017: View feedback&lt;/span&gt;" style="ellipse;whiteSpace=wrap;html=1;" parent="1" vertex="1">
                    <mxGeometry x="400" y="1160" width="120" height="50" as="geometry"/>
                </mxCell>
                <mxCell id="kwJNHoxk6TTBNaTpvNkK-29" value="&lt;span style=&quot;color: rgb(0, 0, 0); font-family: Helvetica; font-size: 12px; font-style: normal; font-variant-ligatures: normal; font-variant-caps: normal; font-weight: 400; letter-spacing: normal; orphans: 2; text-align: center; text-indent: 0px; text-transform: none; widows: 2; word-spacing: 0px; -webkit-text-stroke-width: 0px; background-color: rgb(251, 251, 251); text-decoration-thickness: initial; text-decoration-style: initial; text-decoration-color: initial; float: none; display: inline !important;&quot;&gt;UC019: Manage feedback&lt;/span&gt;" style="ellipse;whiteSpace=wrap;html=1;" parent="1" vertex="1">
                    <mxGeometry x="400" y="1250" width="120" height="50" as="geometry"/>
                </mxCell>
                <mxCell id="UXrXXBjXpSe41hVyBI7v-33" value="UC012: Manage&lt;br&gt;&amp;nbsp;user account" style="ellipse;whiteSpace=wrap;html=1;" parent="1" vertex="1">
                    <mxGeometry x="230" y="815" width="117.5" height="50" as="geometry"/>
                </mxCell>
                <mxCell id="cIsgNL2QNmCeuLE6zkZ4-28" value="" style="rounded=0;whiteSpace=wrap;html=1;fillColor=#FFCCCC;strokeColor=#000000;" parent="1" vertex="1">
                    <mxGeometry x="225" y="540" width="335" height="90" as="geometry"/>
                </mxCell>
                <mxCell id="cIsgNL2QNmCeuLE6zkZ4-29" value="&lt;span style=&quot;color: rgb(0, 0, 0); font-family: Helvetica; font-size: 12px; font-style: normal; font-variant-ligatures: normal; font-variant-caps: normal; font-weight: 400; letter-spacing: normal; orphans: 2; text-align: center; text-indent: 0px; text-transform: none; widows: 2; word-spacing: 0px; -webkit-text-stroke-width: 0px; background-color: rgb(251, 251, 251); text-decoration-thickness: initial; text-decoration-style: initial; text-decoration-color: initial; float: none; display: inline !important;&quot;&gt;Processing Module&lt;/span&gt;" style="rounded=0;whiteSpace=wrap;html=1;" parent="1" vertex="1">
                    <mxGeometry x="225" y="520" width="115" height="20" as="geometry"/>
                </mxCell>
                <mxCell id="cIsgNL2QNmCeuLE6zkZ4-35" value="&lt;span style=&quot;color: rgb(0, 0, 0); font-family: Helvetica; font-size: 12px; font-style: normal; font-variant-ligatures: normal; font-variant-caps: normal; font-weight: 400; letter-spacing: normal; orphans: 2; text-align: center; text-indent: 0px; text-transform: none; widows: 2; word-spacing: 0px; -webkit-text-stroke-width: 0px; background-color: rgb(251, 251, 251); text-decoration-thickness: initial; text-decoration-style: initial; text-decoration-color: initial; float: none; display: inline !important;&quot;&gt;UC008: Posts fillteration&lt;/span&gt;" style="ellipse;whiteSpace=wrap;html=1;" parent="1" vertex="1">
                    <mxGeometry x="410" y="550" width="107.5" height="40" as="geometry"/>
                </mxCell>
                <mxCell id="cIsgNL2QNmCeuLE6zkZ4-42" value="" style="rounded=0;whiteSpace=wrap;html=1;fillColor=#FFCCCC;" parent="1" vertex="1">
                    <mxGeometry x="225" y="947.5" width="335" height="152.5" as="geometry"/>
                </mxCell>
                <mxCell id="cIsgNL2QNmCeuLE6zkZ4-43" value="&lt;span style=&quot;color: rgb(0, 0, 0); font-family: Helvetica; font-size: 12px; font-style: normal; font-variant-ligatures: normal; font-variant-caps: normal; font-weight: 400; letter-spacing: normal; orphans: 2; text-align: center; text-indent: 0px; text-transform: none; widows: 2; word-spacing: 0px; -webkit-text-stroke-width: 0px; background-color: rgb(251, 251, 251); text-decoration-thickness: initial; text-decoration-style: initial; text-decoration-color: initial; float: none; display: inline !important;&quot;&gt;Personalised Dashboard Module&lt;/span&gt;" style="rounded=0;whiteSpace=wrap;html=1;" parent="1" vertex="1">
                    <mxGeometry x="225" y="930" width="200" height="17.5" as="geometry"/>
                </mxCell>
                <mxCell id="LPGJfSuWznseCfs-JJjP-139" style="edgeStyle=none;html=1;exitX=1;exitY=1;exitDx=0;exitDy=0;entryX=0;entryY=0;entryDx=0;entryDy=0;dashed=1;" parent="1" source="cIsgNL2QNmCeuLE6zkZ4-49" target="LPGJfSuWznseCfs-JJjP-101" edge="1">
                    <mxGeometry relative="1" as="geometry"/>
                </mxCell>
                <mxCell id="LPGJfSuWznseCfs-JJjP-144" style="edgeStyle=none;html=1;exitX=1;exitY=0;exitDx=0;exitDy=0;entryX=0;entryY=1;entryDx=0;entryDy=0;dashed=1;" parent="1" source="cIsgNL2QNmCeuLE6zkZ4-49" target="LPGJfSuWznseCfs-JJjP-102" edge="1">
                    <mxGeometry relative="1" as="geometry"/>
                </mxCell>
                <mxCell id="cIsgNL2QNmCeuLE6zkZ4-49" value="UC014: Make Post" style="ellipse;whiteSpace=wrap;html=1;" parent="1" vertex="1">
                    <mxGeometry x="235" y="998.75" width="120" height="35" as="geometry"/>
                </mxCell>
                <mxCell id="UXrXXBjXpSe41hVyBI7v-42" value="UC009: Validate feedback" style="ellipse;whiteSpace=wrap;html=1;" parent="1" vertex="1">
                    <mxGeometry x="260" y="570" width="115" height="45" as="geometry"/>
                </mxCell>
                <mxCell id="NdrQbTK8zsEzTxqzjizh-29" value="Anonymous Forum Module" style="rounded=0;whiteSpace=wrap;html=1;" parent="1" vertex="1">
                    <mxGeometry x="217.5" y="1360" width="160" height="20" as="geometry"/>
                </mxCell>
                <mxCell id="NdrQbTK8zsEzTxqzjizh-30" value="" style="rounded=0;whiteSpace=wrap;html=1;fillColor=#FFCCCC;" parent="1" vertex="1">
                    <mxGeometry x="217.5" y="1380" width="342.5" height="190" as="geometry"/>
                </mxCell>
                <mxCell id="LPGJfSuWznseCfs-JJjP-129" style="edgeStyle=none;html=1;exitX=0;exitY=0.5;exitDx=0;exitDy=0;entryX=1;entryY=0.5;entryDx=0;entryDy=0;dashed=1;startArrow=none;" parent="1" source="LPGJfSuWznseCfs-JJjP-130" target="NdrQbTK8zsEzTxqzjizh-32" edge="1">
                    <mxGeometry relative="1" as="geometry"/>
                </mxCell>
                <mxCell id="NdrQbTK8zsEzTxqzjizh-31" value="UC020 - Create Forum" style="ellipse;whiteSpace=wrap;html=1;" parent="1" vertex="1">
                    <mxGeometry x="440" y="1410" width="115" height="50" as="geometry"/>
                </mxCell>
                <mxCell id="LPGJfSuWznseCfs-JJjP-128" style="edgeStyle=none;html=1;exitX=1;exitY=1;exitDx=0;exitDy=0;entryX=0.5;entryY=0;entryDx=0;entryDy=0;dashed=1;startArrow=none;" parent="1" source="v9_ZGucAcSemxysPmhjM-51" target="NdrQbTK8zsEzTxqzjizh-33" edge="1">
                    <mxGeometry relative="1" as="geometry"/>
                </mxCell>
                <mxCell id="NdrQbTK8zsEzTxqzjizh-32" value="UC021- Forum Posting" style="ellipse;whiteSpace=wrap;html=1;" parent="1" vertex="1">
                    <mxGeometry x="230" y="1385.63" width="110" height="54.37" as="geometry"/>
                </mxCell>
                <mxCell id="NdrQbTK8zsEzTxqzjizh-33" value="UC022-Forum Comments" style="ellipse;whiteSpace=wrap;html=1;" parent="1" vertex="1">
                    <mxGeometry x="430" y="1510" width="95" height="50" as="geometry"/>
                </mxCell>
                <mxCell id="LPGJfSuWznseCfs-JJjP-111" style="edgeStyle=none;html=1;exitX=0;exitY=0;exitDx=0;exitDy=0;entryX=1;entryY=1;entryDx=0;entryDy=0;dashed=1;startArrow=none;" parent="1" source="31" target="18" edge="1">
                    <mxGeometry relative="1" as="geometry"/>
                </mxCell>
                <mxCell id="30" value="UC013: Download Report" style="ellipse;whiteSpace=wrap;html=1;" parent="1" vertex="1">
                    <mxGeometry x="410" y="800" width="132.5" height="50" as="geometry"/>
                </mxCell>
                <mxCell id="LPGJfSuWznseCfs-JJjP-71" value="UC018: Submit &lt;br&gt;feedback" style="ellipse;whiteSpace=wrap;html=1;" parent="1" vertex="1">
                    <mxGeometry x="250" y="1200" width="110" height="57.5" as="geometry"/>
                </mxCell>
                <mxCell id="35" value="UC023 - Edit Posts&amp;nbsp;" style="ellipse;whiteSpace=wrap;html=1;" parent="1" vertex="1">
                    <mxGeometry x="232.5" y="1490" width="102.5" height="50" as="geometry"/>
                </mxCell>
                <mxCell id="-lQimrpiOml3iNzKO8SN-64" style="edgeStyle=none;html=1;exitX=0.75;exitY=1;exitDx=0;exitDy=0;entryX=0.22;entryY=0.093;entryDx=0;entryDy=0;entryPerimeter=0;" parent="1" source="v9_ZGucAcSemxysPmhjM-51" edge="1">
                    <mxGeometry relative="1" as="geometry"/>
                </mxCell>
                <mxCell id="41" value="" style="rounded=0;whiteSpace=wrap;html=1;fillColor=#FFCCCC;" parent="1" vertex="1">
                    <mxGeometry x="225" y="287.5" width="335" height="192.5" as="geometry"/>
                </mxCell>
                <mxCell id="42" value="User Information Module" style="rounded=0;whiteSpace=wrap;html=1;" parent="1" vertex="1">
                    <mxGeometry x="225" y="270" width="150" height="17.5" as="geometry"/>
                </mxCell>
                <mxCell id="43" value="UC005: Update Profile" style="ellipse;whiteSpace=wrap;html=1;" parent="1" vertex="1">
                    <mxGeometry x="250" y="300" width="120" height="50" as="geometry"/>
                </mxCell>
                <mxCell id="LPGJfSuWznseCfs-JJjP-119" style="edgeStyle=none;html=1;exitX=0.5;exitY=0;exitDx=0;exitDy=0;entryX=0.5;entryY=1;entryDx=0;entryDy=0;dashed=1;startArrow=none;" parent="1" source="46" target="43" edge="1">
                    <mxGeometry relative="1" as="geometry"/>
                </mxCell>
                <mxCell id="44" value="UC006: Delete Profile" style="ellipse;whiteSpace=wrap;html=1;" parent="1" vertex="1">
                    <mxGeometry x="260" y="417.5" width="100" height="45" as="geometry"/>
                </mxCell>
                <mxCell id="50" value="UC007: Update SRC &lt;br&gt;Info Board" style="ellipse;whiteSpace=wrap;html=1;" parent="1" vertex="1">
                    <mxGeometry x="400" y="360" width="145" height="55" as="geometry"/>
                </mxCell>
                <mxCell id="LPGJfSuWznseCfs-JJjP-101" value="UC016: Delete Post" style="ellipse;whiteSpace=wrap;html=1;" parent="1" vertex="1">
                    <mxGeometry x="430" y="1040" width="120" height="35" as="geometry"/>
                </mxCell>
                <mxCell id="LPGJfSuWznseCfs-JJjP-102" value="UC015: Edit Post" style="ellipse;whiteSpace=wrap;html=1;" parent="1" vertex="1">
                    <mxGeometry x="432.5" y="963.75" width="120" height="35" as="geometry"/>
                </mxCell>
                <mxCell id="54" style="edgeStyle=none;html=1;entryX=0;entryY=0.5;entryDx=0;entryDy=0;" parent="1" target="16" edge="1">
                    <mxGeometry relative="1" as="geometry">
                        <Array as="points">
                            <mxPoint x="55" y="90"/>
                        </Array>
                        <mxPoint x="55" y="560" as="sourcePoint"/>
                        <mxPoint x="-470.0008729652601" y="258.7132034355966" as="targetPoint"/>
                    </mxGeometry>
                </mxCell>
                <mxCell id="55" style="edgeStyle=none;html=1;entryX=1;entryY=0;entryDx=0;entryDy=0;" parent="1" target="16" edge="1">
                    <mxGeometry relative="1" as="geometry">
                        <Array as="points">
                            <mxPoint x="980" y="69"/>
                            <mxPoint x="660" y="60"/>
                        </Array>
                        <mxPoint x="980" y="980" as="sourcePoint"/>
                        <mxPoint x="239.99999999999704" y="518.75" as="targetPoint"/>
                    </mxGeometry>
                </mxCell>
                <mxCell id="56" style="edgeStyle=none;html=1;entryX=0;entryY=1;entryDx=0;entryDy=0;" parent="1" target="3bklzfCK_-_vBuCAfFPz-19" edge="1">
                    <mxGeometry relative="1" as="geometry">
                        <Array as="points">
                            <mxPoint x="120" y="150"/>
                            <mxPoint x="300" y="130"/>
                        </Array>
                        <mxPoint x="70" y="570" as="sourcePoint"/>
                    </mxGeometry>
                </mxCell>
                <mxCell id="58" style="edgeStyle=none;html=1;entryX=0.5;entryY=1;entryDx=0;entryDy=0;" parent="1" target="3bklzfCK_-_vBuCAfFPz-19" edge="1">
                    <mxGeometry relative="1" as="geometry">
                        <mxPoint x="970" y="980" as="sourcePoint"/>
                        <Array as="points">
                            <mxPoint x="760" y="200"/>
                        </Array>
                    </mxGeometry>
                </mxCell>
                <mxCell id="59" style="edgeStyle=none;html=1;entryX=0;entryY=1;entryDx=0;entryDy=0;" parent="1" edge="1">
                    <mxGeometry relative="1" as="geometry">
                        <Array as="points"/>
                        <mxPoint x="80" y="590" as="sourcePoint"/>
                        <mxPoint x="236.01641974775566" y="100.00251499407531" as="targetPoint"/>
                    </mxGeometry>
                </mxCell>
                <mxCell id="60" style="edgeStyle=none;html=1;entryX=0;entryY=0.5;entryDx=0;entryDy=0;" parent="1" target="43" edge="1">
                    <mxGeometry relative="1" as="geometry">
                        <Array as="points"/>
                        <mxPoint x="90" y="600" as="sourcePoint"/>
                        <mxPoint x="246.01641974775566" y="110.00251499407523" as="targetPoint"/>
                    </mxGeometry>
                </mxCell>
                <mxCell id="63" style="edgeStyle=none;html=1;entryX=0;entryY=1;entryDx=0;entryDy=0;" parent="1" target="44" edge="1">
                    <mxGeometry relative="1" as="geometry">
                        <Array as="points"/>
                        <mxPoint x="100" y="610" as="sourcePoint"/>
                        <mxPoint x="265" y="352.5" as="targetPoint"/>
                    </mxGeometry>
                </mxCell>
                <mxCell id="64" style="edgeStyle=none;html=1;entryX=0.5;entryY=1;entryDx=0;entryDy=0;" parent="1" target="50" edge="1">
                    <mxGeometry relative="1" as="geometry">
                        <mxPoint x="960" y="990" as="sourcePoint"/>
                        <Array as="points">
                            <mxPoint x="670" y="670"/>
                            <mxPoint x="570" y="520"/>
                        </Array>
                    </mxGeometry>
                </mxCell>
                <mxCell id="65" style="edgeStyle=none;html=1;entryX=0.027;entryY=0.693;entryDx=0;entryDy=0;entryPerimeter=0;" parent="1" target="3bklzfCK_-_vBuCAfFPz-20" edge="1">
                    <mxGeometry relative="1" as="geometry">
                        <Array as="points"/>
                        <mxPoint x="90" y="590" as="sourcePoint"/>
                        <mxPoint x="244.99574876003163" y="501.65077832887465" as="targetPoint"/>
                    </mxGeometry>
                </mxCell>
                <mxCell id="67" style="edgeStyle=none;html=1;entryX=1;entryY=0.5;entryDx=0;entryDy=0;" parent="1" target="kwJNHoxk6TTBNaTpvNkK-29" edge="1">
                    <mxGeometry relative="1" as="geometry">
                        <mxPoint x="1050" y="800" as="sourcePoint"/>
                        <mxPoint x="505" y="1535" as="targetPoint"/>
                        <Array as="points">
                            <mxPoint x="1050" y="1180"/>
                        </Array>
                    </mxGeometry>
                </mxCell>
                <mxCell id="LPGJfSuWznseCfs-JJjP-115" value="&amp;lt;include&amp;gt;" style="rounded=0;whiteSpace=wrap;html=1;fillColor=#CCCCCC;strokeColor=none;strokeWidth=0;" parent="1" vertex="1">
                    <mxGeometry x="355" y="107.5" width="60" height="20" as="geometry"/>
                </mxCell>
                <mxCell id="LPGJfSuWznseCfs-JJjP-117" value="&amp;lt;include&amp;gt;" style="rounded=0;whiteSpace=wrap;html=1;fillColor=#CCCCCC;strokeColor=none;strokeWidth=0;" parent="1" vertex="1">
                    <mxGeometry x="365" y="195" width="60" height="20" as="geometry"/>
                </mxCell>
                <mxCell id="75" style="edgeStyle=none;html=1;exitX=0.5;exitY=0;exitDx=0;exitDy=0;dashed=1;entryX=0.546;entryY=0.034;entryDx=0;entryDy=0;startArrow=none;entryPerimeter=0;" parent="1" source="LPGJfSuWznseCfs-JJjP-87" target="kwJNHoxk6TTBNaTpvNkK-29" edge="1">
                    <mxGeometry relative="1" as="geometry">
                        <mxPoint x="397.5" y="1262.5" as="sourcePoint"/>
                        <mxPoint x="293.78" y="1237.28" as="targetPoint"/>
                    </mxGeometry>
                </mxCell>
                <mxCell id="80" style="edgeStyle=none;html=1;exitX=0.5;exitY=0;exitDx=0;exitDy=0;entryX=0.5;entryY=1;entryDx=0;entryDy=0;dashed=1;" parent="1" source="3bklzfCK_-_vBuCAfFPz-20" target="16" edge="1">
                    <mxGeometry relative="1" as="geometry">
                        <mxPoint x="391.2199999999996" y="145.22" as="sourcePoint"/>
                        <mxPoint x="287.5000000000001" y="120.00000000000003" as="targetPoint"/>
                    </mxGeometry>
                </mxCell>
                <mxCell id="82" style="edgeStyle=none;html=1;exitX=0.5;exitY=0;exitDx=0;exitDy=0;entryX=0.5;entryY=1;entryDx=0;entryDy=0;dashed=1;" parent="1" edge="1">
                    <mxGeometry relative="1" as="geometry">
                        <mxPoint x="300" y="147.5" as="sourcePoint"/>
                        <mxPoint x="300" y="130" as="targetPoint"/>
                    </mxGeometry>
                </mxCell>
                <mxCell id="tRfl53h29Oq87ieM9Fut-20" value="&amp;lt;include&amp;gt;" style="rounded=0;whiteSpace=wrap;html=1;fillColor=#CCCCCC;strokeColor=none;strokeWidth=0;" parent="1" vertex="1">
                    <mxGeometry x="260" y="137.5" width="60" height="20" as="geometry"/>
                </mxCell>
                <mxCell id="84" style="edgeStyle=none;html=1;entryX=1;entryY=0.5;entryDx=0;entryDy=0;" parent="1" target="cIsgNL2QNmCeuLE6zkZ4-35" edge="1">
                    <mxGeometry relative="1" as="geometry">
                        <mxPoint x="1030" y="730" as="sourcePoint"/>
                    </mxGeometry>
                </mxCell>
                <mxCell id="85" style="edgeStyle=none;html=1;entryX=1;entryY=0.5;entryDx=0;entryDy=0;" parent="1" target="3bklzfCK_-_vBuCAfFPz-19" edge="1">
                    <mxGeometry relative="1" as="geometry">
                        <Array as="points">
                            <mxPoint x="870" y="160"/>
                        </Array>
                        <mxPoint x="1040" y="710" as="sourcePoint"/>
                    </mxGeometry>
                </mxCell>
                <mxCell id="-lQimrpiOml3iNzKO8SN-88" value="" style="endArrow=classic;html=1;entryX=0;entryY=0;entryDx=0;entryDy=0;" parent="1" target="35" edge="1">
                    <mxGeometry width="50" height="50" relative="1" as="geometry">
                        <mxPoint x="60" y="680" as="sourcePoint"/>
                        <mxPoint x="140" y="1530" as="targetPoint"/>
                        <Array as="points">
                            <mxPoint x="200" y="1460"/>
                        </Array>
                    </mxGeometry>
                </mxCell>
                <mxCell id="86" style="edgeStyle=none;html=1;entryX=1;entryY=0.5;entryDx=0;entryDy=0;" parent="1" edge="1">
                    <mxGeometry relative="1" as="geometry">
                        <mxPoint x="1033" y="710" as="sourcePoint"/>
                        <mxPoint x="540.5" y="205" as="targetPoint"/>
                    </mxGeometry>
                </mxCell>
                <mxCell id="87" style="edgeStyle=none;html=1;entryX=1;entryY=1;entryDx=0;entryDy=0;" parent="1" target="3bklzfCK_-_vBuCAfFPz-20" edge="1">
                    <mxGeometry relative="1" as="geometry">
                        <Array as="points">
                            <mxPoint x="590" y="290"/>
                        </Array>
                        <mxPoint x="1030" y="720" as="sourcePoint"/>
                    </mxGeometry>
                </mxCell>
                <mxCell id="-lQimrpiOml3iNzKO8SN-90" value="" style="endArrow=classic;html=1;entryX=0;entryY=1;entryDx=0;entryDy=0;" parent="1" target="NdrQbTK8zsEzTxqzjizh-33" edge="1">
                    <mxGeometry width="50" height="50" relative="1" as="geometry">
                        <mxPoint x="40" y="690" as="sourcePoint"/>
                        <mxPoint x="400" y="1630" as="targetPoint"/>
                        <Array as="points">
                            <mxPoint x="40" y="1560"/>
                        </Array>
                    </mxGeometry>
                </mxCell>
                <mxCell id="88" style="edgeStyle=none;html=1;entryX=0;entryY=0.5;entryDx=0;entryDy=0;" parent="1" target="LPGJfSuWznseCfs-JJjP-71" edge="1">
                    <mxGeometry relative="1" as="geometry">
                        <mxPoint x="80" y="680" as="sourcePoint"/>
                        <Array as="points">
                            <mxPoint x="190" y="1160"/>
                        </Array>
                    </mxGeometry>
                </mxCell>
                <mxCell id="89" style="edgeStyle=none;html=1;entryX=1;entryY=0.5;entryDx=0;entryDy=0;" parent="1" target="kwJNHoxk6TTBNaTpvNkK-27" edge="1">
                    <mxGeometry relative="1" as="geometry">
                        <mxPoint x="960" y="1060" as="sourcePoint"/>
                    </mxGeometry>
                </mxCell>
                <mxCell id="90" style="edgeStyle=none;html=1;entryX=1;entryY=0.5;entryDx=0;entryDy=0;" parent="1" target="UXrXXBjXpSe41hVyBI7v-42" edge="1">
                    <mxGeometry relative="1" as="geometry">
                        <mxPoint x="1020" y="740" as="sourcePoint"/>
                    </mxGeometry>
                </mxCell>
                <mxCell id="91" style="edgeStyle=none;html=1;entryX=1;entryY=0.5;entryDx=0;entryDy=0;" parent="1" target="19" edge="1">
                    <mxGeometry relative="1" as="geometry">
                        <mxPoint x="1030" y="760" as="sourcePoint"/>
                        <mxPoint x="412.4999999999982" y="627.5" as="targetPoint"/>
                    </mxGeometry>
                </mxCell>
                <mxCell id="92" style="edgeStyle=none;html=1;entryX=1;entryY=0.5;entryDx=0;entryDy=0;" parent="1" target="30" edge="1">
                    <mxGeometry relative="1" as="geometry">
                        <mxPoint x="1020" y="770" as="sourcePoint"/>
                        <mxPoint x="582.5" y="772.5" as="targetPoint"/>
                    </mxGeometry>
                </mxCell>
                <mxCell id="93" style="edgeStyle=none;html=1;entryX=0.768;entryY=0.12;entryDx=0;entryDy=0;entryPerimeter=0;" parent="1" target="18" edge="1">
                    <mxGeometry relative="1" as="geometry">
                        <Array as="points">
                            <mxPoint x="620" y="700"/>
                        </Array>
                        <mxPoint x="1020" y="750" as="sourcePoint"/>
                    </mxGeometry>
                </mxCell>
                <mxCell id="94" value="" style="edgeStyle=none;html=1;exitX=0;exitY=0.5;exitDx=0;exitDy=0;entryX=1;entryY=0.5;entryDx=0;entryDy=0;dashed=1;endArrow=none;" parent="1" source="NdrQbTK8zsEzTxqzjizh-31" target="LPGJfSuWznseCfs-JJjP-130" edge="1">
                    <mxGeometry relative="1" as="geometry">
                        <mxPoint x="505.00000000000057" y="1440" as="sourcePoint"/>
                        <mxPoint x="350" y="1425.63" as="targetPoint"/>
                    </mxGeometry>
                </mxCell>
                <mxCell id="LPGJfSuWznseCfs-JJjP-130" value="&amp;lt;include&amp;gt;" style="rounded=0;whiteSpace=wrap;html=1;fillColor=#CCCCCC;strokeWidth=0;strokeColor=none;" parent="1" vertex="1">
                    <mxGeometry x="362.5" y="1409.9999999999998" width="60" height="20" as="geometry"/>
                </mxCell>
                <mxCell id="95" style="edgeStyle=none;html=1;entryX=0.5;entryY=0;entryDx=0;entryDy=0;dashed=1;exitX=0.5;exitY=1;exitDx=0;exitDy=0;" parent="1" source="NdrQbTK8zsEzTxqzjizh-32" target="35" edge="1">
                    <mxGeometry relative="1" as="geometry">
                        <mxPoint x="290" y="1470" as="sourcePoint"/>
                        <mxPoint x="485.07" y="1540" as="targetPoint"/>
                    </mxGeometry>
                </mxCell>
                <mxCell id="96" style="edgeStyle=none;html=1;entryX=1;entryY=0.5;entryDx=0;entryDy=0;" parent="1" target="UXrXXBjXpSe41hVyBI7v-33" edge="1">
                    <mxGeometry relative="1" as="geometry">
                        <Array as="points">
                            <mxPoint x="680" y="920"/>
                        </Array>
                        <mxPoint x="1020" y="780" as="sourcePoint"/>
                    </mxGeometry>
                </mxCell>
                <mxCell id="v9_ZGucAcSemxysPmhjM-43" value="&amp;lt;include&amp;gt;" style="rounded=0;whiteSpace=wrap;html=1;fillColor=#CCCCCC;strokeWidth=0;strokeColor=none;" parent="1" vertex="1">
                    <mxGeometry x="257.5" y="1449.9999999999998" width="60" height="15.62" as="geometry"/>
                </mxCell>
                <mxCell id="98" value="" style="endArrow=classic;html=1;" parent="1" edge="1">
                    <mxGeometry width="50" height="50" relative="1" as="geometry">
                        <mxPoint x="70" y="680" as="sourcePoint"/>
                        <mxPoint x="230" y="1410" as="targetPoint"/>
                        <Array as="points">
                            <mxPoint x="180" y="1270"/>
                        </Array>
                    </mxGeometry>
                </mxCell>
                <mxCell id="-lQimrpiOml3iNzKO8SN-98" value="" style="endArrow=classic;html=1;entryX=0.5;entryY=0;entryDx=0;entryDy=0;" parent="1" target="NdrQbTK8zsEzTxqzjizh-31" edge="1">
                    <mxGeometry width="50" height="50" relative="1" as="geometry">
                        <mxPoint x="50" y="690" as="sourcePoint"/>
                        <mxPoint x="590" y="1670" as="targetPoint"/>
                        <Array as="points">
                            <mxPoint x="140" y="1330"/>
                            <mxPoint x="457" y="1330"/>
                        </Array>
                    </mxGeometry>
                </mxCell>
                <mxCell id="99" value="" style="edgeStyle=none;html=1;exitX=0;exitY=0;exitDx=0;exitDy=0;entryX=1;entryY=1;entryDx=0;entryDy=0;dashed=1;endArrow=none;" parent="1" source="30" target="31" edge="1">
                    <mxGeometry relative="1" as="geometry">
                        <mxPoint x="428.8461782600805" y="807.535434095819" as="sourcePoint"/>
                        <mxPoint x="340.4833547341086" y="772.4425207616673" as="targetPoint"/>
                    </mxGeometry>
                </mxCell>
                <mxCell id="31" value="&amp;lt;include&amp;gt;" style="rounded=0;whiteSpace=wrap;html=1;fillColor=#CCCCCC;strokeWidth=0;strokeColor=none;" parent="1" vertex="1">
                    <mxGeometry x="350" y="780" width="60" height="20" as="geometry"/>
                </mxCell>
                <mxCell id="LPGJfSuWznseCfs-JJjP-135" value="&amp;lt;include&amp;gt;" style="rounded=0;whiteSpace=wrap;html=1;fillColor=#CCCCCC;strokeWidth=0;strokeColor=none;" parent="1" vertex="1">
                    <mxGeometry x="360" y="1030" width="60" height="20" as="geometry"/>
                </mxCell>
                <mxCell id="100" value="" style="edgeStyle=none;html=1;exitX=0;exitY=0.5;exitDx=0;exitDy=0;dashed=1;endArrow=none;" parent="1" source="19" target="27" edge="1">
                    <mxGeometry relative="1" as="geometry">
                        <mxPoint x="430.0000000000009" y="752.5" as="sourcePoint"/>
                        <mxPoint x="349.9733521253487" y="754.2549894145918" as="targetPoint"/>
                    </mxGeometry>
                </mxCell>
                <mxCell id="27" value="&amp;lt;include&amp;gt;" style="rounded=0;whiteSpace=wrap;html=1;fillColor=#CCCCCC;strokeWidth=0;strokeColor=none;" parent="1" vertex="1">
                    <mxGeometry x="370" y="740" width="60" height="20" as="geometry"/>
                </mxCell>
                <mxCell id="101" value="" style="edgeStyle=none;html=1;exitX=0.5;exitY=1;exitDx=0;exitDy=0;dashed=1;entryX=0.5;entryY=1;entryDx=0;entryDy=0;endArrow=none;" parent="1" source="kwJNHoxk6TTBNaTpvNkK-27" target="LPGJfSuWznseCfs-JJjP-87" edge="1">
                    <mxGeometry relative="1" as="geometry">
                        <mxPoint x="470" y="1250" as="sourcePoint"/>
                        <mxPoint x="470" y="1207.5" as="targetPoint"/>
                    </mxGeometry>
                </mxCell>
                <mxCell id="LPGJfSuWznseCfs-JJjP-87" value="&amp;lt;include&amp;gt;" style="rounded=0;whiteSpace=wrap;html=1;fillColor=#CCCCCC;strokeWidth=0;strokeColor=none;" parent="1" vertex="1">
                    <mxGeometry x="430" y="1220" width="60" height="20" as="geometry"/>
                </mxCell>
                <mxCell id="103" style="edgeStyle=none;html=1;entryX=0;entryY=0.5;entryDx=0;entryDy=0;" parent="1" target="cIsgNL2QNmCeuLE6zkZ4-49" edge="1">
                    <mxGeometry relative="1" as="geometry">
                        <Array as="points">
                            <mxPoint x="200" y="990"/>
                        </Array>
                        <mxPoint x="90" y="664.01" as="sourcePoint"/>
                        <mxPoint x="239.82277010400458" y="509.9996499527251" as="targetPoint"/>
                    </mxGeometry>
                </mxCell>
                <mxCell id="104" style="edgeStyle=none;html=1;entryX=0;entryY=0.5;entryDx=0;entryDy=0;" parent="1" target="LPGJfSuWznseCfs-JJjP-102" edge="1">
                    <mxGeometry relative="1" as="geometry">
                        <Array as="points">
                            <mxPoint x="190" y="880"/>
                            <mxPoint x="230" y="980"/>
                        </Array>
                        <mxPoint x="90" y="640" as="sourcePoint"/>
                    </mxGeometry>
                </mxCell>
                <mxCell id="LPGJfSuWznseCfs-JJjP-141" value="" style="endArrow=classic;html=1;" parent="1" target="LPGJfSuWznseCfs-JJjP-101" edge="1">
                    <mxGeometry width="50" height="50" relative="1" as="geometry">
                        <mxPoint x="90" y="680" as="sourcePoint"/>
                        <mxPoint x="310" y="1050" as="targetPoint"/>
                        <Array as="points">
                            <mxPoint x="200" y="1070"/>
                        </Array>
                    </mxGeometry>
                </mxCell>
                <mxCell id="105" value="" style="edgeStyle=none;html=1;exitX=0.5;exitY=0;exitDx=0;exitDy=0;entryX=0.5;entryY=1;entryDx=0;entryDy=0;dashed=1;endArrow=none;" parent="1" source="44" target="46" edge="1">
                    <mxGeometry relative="1" as="geometry">
                        <mxPoint x="310" y="417.5" as="sourcePoint"/>
                        <mxPoint x="310" y="350" as="targetPoint"/>
                    </mxGeometry>
                </mxCell>
                <mxCell id="46" value="&amp;lt;include&amp;gt;" style="rounded=0;whiteSpace=wrap;html=1;fillColor=#CCCCCC;strokeColor=none;strokeWidth=0;" parent="1" vertex="1">
                    <mxGeometry x="280" y="380" width="60" height="20" as="geometry"/>
                </mxCell>
                <mxCell id="LPGJfSuWznseCfs-JJjP-134" value="&amp;lt;include&amp;gt;" style="rounded=0;whiteSpace=wrap;html=1;fillColor=#CCCCCC;strokeWidth=0;strokeColor=none;" parent="1" vertex="1">
                    <mxGeometry x="370" y="990" width="60" height="20" as="geometry"/>
                </mxCell>
                <mxCell id="106" value="" style="edgeStyle=none;html=1;exitX=1;exitY=1;exitDx=0;exitDy=0;entryX=0.5;entryY=0;entryDx=0;entryDy=0;dashed=1;endArrow=none;" parent="1" source="NdrQbTK8zsEzTxqzjizh-32" target="v9_ZGucAcSemxysPmhjM-51" edge="1">
                    <mxGeometry relative="1" as="geometry">
                        <mxPoint x="324.0234278661459" y="1431.9719554979263" as="sourcePoint"/>
                        <mxPoint x="422.5" y="1510" as="targetPoint"/>
                    </mxGeometry>
                </mxCell>
                <mxCell id="v9_ZGucAcSemxysPmhjM-51" value="&amp;lt;include&amp;gt;" style="rounded=0;whiteSpace=wrap;html=1;fillColor=#CCCCCC;strokeWidth=0;strokeColor=none;" parent="1" vertex="1">
                    <mxGeometry x="360" y="1459.9999999999998" width="60" height="20" as="geometry"/>
                </mxCell>
            </root>
        </mxGraphModel>
    </diagram>
    <diagram id="jEq61xbtfuYZToS1USGE" name="Registration Module">
        <mxGraphModel dx="942" dy="459" grid="1" gridSize="10" guides="1" tooltips="1" connect="1" arrows="1" fold="1" page="1" pageScale="1" pageWidth="850" pageHeight="1100" math="0" shadow="0">
            <root>
                <mxCell id="0"/>
                <mxCell id="1" parent="0"/>
            </root>
        </mxGraphModel>
    </diagram>
    <diagram id="koUvlcDx6Jtsu5EIQPOX" name="Admin and Reporting">
        <mxGraphModel dx="689" dy="488" grid="1" gridSize="10" guides="1" tooltips="1" connect="1" arrows="1" fold="1" page="1" pageScale="1" pageWidth="850" pageHeight="1100" math="0" shadow="0">
            <root>
                <mxCell id="0"/>
                <mxCell id="1" parent="0"/>
            </root>
        </mxGraphModel>
    </diagram>
</mxfile>